<svg width="601" height="482" viewBox="0 0 601 482" fill="none" xmlns="http://www.w3.org/2000/svg">
<circle cx="237" cy="241" r="205" fill="url(#paint0_radial_2_604)" stroke="#FFB502" stroke-width="6"/>
<path style="mix-blend-mode:lighten" d="M216.844 252.711L0 127.533L50.2222 54.3111L305.355 201.6L216.844 252.711Z" fill="url(#paint1_linear_2_604)"/>
<path d="M228.111 382.911L81.9778 298.556L198.111 231.511L344.244 315.867L228.111 382.911Z" fill="#053054"/>
<path d="M228.111 223.689L81.9778 139.333L198.111 72.2889L344.244 156.644L228.111 223.689Z" fill="url(#paint2_linear_2_604)"/>
<path d="M344.244 247.133V156.644L228.111 223.689V314.178L344.244 247.133Z" fill="url(#paint3_linear_2_604)"/>
<path d="M81.9778 139.333V229.822L228.111 314.178V223.689L81.9778 139.333Z" fill="url(#paint4_linear_2_604)"/>
<path d="M171.844 118.156L108.578 154.689V174.267L127.356 185.111V165.533L190.622 129L171.844 118.156Z" fill="white"/>
<path d="M212.022 141.356L148.755 177.867V197.444L167.533 208.289V188.711L230.8 152.178L212.022 141.356Z" fill="white"/>
<path d="M252.266 164.578L189 201.089V220.667L207.778 231.511V211.933L271.044 175.422L252.266 164.578Z" fill="white"/>
<path d="M171.844 118.156V126.044L183.911 132.867L190.622 129L171.844 118.156Z" fill="#A9EBFF"/>
<path d="M115.378 170.222L108.578 174.267L127.356 185.111V176.956L115.378 170.222Z" fill="#A9EBFF"/>
<path d="M171.844 118.156L108.578 154.689V174.267L115.378 170.222V158.667L171.867 126.044L171.844 118.156Z" fill="url(#paint5_linear_2_604)"/>
<path d="M212.022 141.356V149.244L224.089 156.067L230.8 152.178L212.022 141.356Z" fill="#A9EBFF"/>
<path d="M155.578 193.4L148.755 197.444L167.533 208.289V200.133L155.578 193.4Z" fill="#A9EBFF"/>
<path d="M212.022 141.356L148.755 177.867V197.444L155.578 193.4V181.844L212.066 149.244L212.022 141.356Z" fill="url(#paint6_linear_2_604)"/>
<path d="M252.267 164.578V172.467L264.333 179.289L271.044 175.422L252.267 164.578Z" fill="#A9EBFF"/>
<path d="M195.8 216.622L189 220.667L207.778 231.511V223.378L195.8 216.622Z" fill="#A9EBFF"/>
<path d="M252.266 164.578L189 201.089V220.667L195.8 216.622V205.067L252.289 172.467L252.266 164.578Z" fill="url(#paint7_linear_2_604)"/>
<path d="M322.711 321.422L398.911 277.444V243.644L322.711 287.644V321.422Z" fill="url(#paint8_linear_2_604)"/>
<path d="M322.711 287.644L398.911 243.644L322.733 199.667L246.555 243.644L322.711 287.644Z" fill="url(#paint9_linear_2_604)"/>
<path d="M322.711 271.756L371.378 243.644L322.733 215.556L274.067 243.644L322.711 271.756Z" fill="white"/>
<path d="M322.733 220.667L366.955 246.222L371.378 243.644L322.733 215.556L274.067 243.644L278.489 246.222L322.733 220.667Z" fill="#A9EBFF"/>
<path d="M322.733 201.333L397.467 244.489L398.911 243.644L322.733 199.667L246.555 243.644L247.978 244.489L322.733 201.333Z" fill="#A9EBFF"/>
<path d="M246.533 277.444L322.733 321.422V287.644L246.533 243.644V277.444Z" fill="url(#paint10_linear_2_604)"/>
<path d="M322.711 285.956L397.444 242.8L398.911 243.644L322.711 287.644L246.555 243.644L248 242.822L322.711 285.956Z" fill="#A9EBFF"/>
<path d="M336.839 292.215C337.185 291.582 337.651 291.026 338.209 290.577C338.768 290.128 339.408 289.796 340.093 289.6C340.779 289.404 341.495 289.347 342.202 289.433C342.909 289.52 343.592 289.748 344.212 290.103L364.297 301.907C369.04 304.687 372.979 308.687 375.717 313.506C378.455 318.326 379.896 323.793 379.895 329.359V354.509C379.901 358.144 380.843 361.714 382.629 364.863C384.415 368.013 386.981 370.631 390.072 372.458L537.706 459.036C541.304 461.148 545.306 462.451 549.441 462.858C549.068 466.49 549.213 470.185 548.922 473.839C543.064 473.352 537.387 471.541 532.306 468.538L384.672 381.96C379.933 379.179 375.998 375.177 373.264 370.358C370.529 365.539 369.091 360.072 369.095 354.509V329.444C369.087 325.809 368.141 322.24 366.352 319.094C364.562 315.948 361.991 313.335 358.896 311.516L338.812 299.711C338.196 299.353 337.657 298.874 337.224 298.302C336.791 297.73 336.474 297.077 336.291 296.381C336.108 295.684 336.062 294.957 336.156 294.242C336.25 293.527 336.482 292.838 336.839 292.215Z" fill="white"/>
<path d="M361.283 281.104C361.629 280.471 362.095 279.915 362.654 279.466C363.212 279.017 363.852 278.685 364.538 278.489C365.223 278.293 365.94 278.236 366.646 278.322C367.353 278.409 368.036 278.636 368.656 278.992L388.741 290.796C393.484 293.575 397.423 297.576 400.161 302.395C402.9 307.215 404.341 312.682 404.339 318.248V343.398C404.345 347.033 405.288 350.603 407.074 353.752C408.859 356.902 411.426 359.52 414.517 361.347L562.151 447.925C565.749 450.037 569.75 451.34 573.886 451.747C573.512 455.379 573.657 459.074 573.367 462.728C567.509 462.241 561.832 460.43 556.751 457.427L409.117 370.849C404.377 368.068 400.443 364.066 397.708 359.247C394.973 354.428 393.535 348.961 393.539 343.398V318.332C393.532 314.698 392.586 311.129 390.796 307.983C389.007 304.837 386.436 302.223 383.341 300.404L363.256 288.6C362.641 288.241 362.101 287.762 361.669 287.191C361.236 286.619 360.919 285.966 360.735 285.269C360.552 284.573 360.506 283.846 360.6 283.131C360.694 282.416 360.926 281.727 361.283 281.104Z" fill="white"/>
<path d="M383.505 265.548C383.851 264.916 384.317 264.359 384.876 263.91C385.434 263.462 386.075 263.129 386.76 262.933C387.445 262.737 388.162 262.68 388.869 262.767C389.576 262.853 390.259 263.081 390.879 263.437L410.963 275.241C415.706 278.02 419.645 282.021 422.384 286.84C425.122 291.659 426.563 297.127 426.562 302.692V327.842C426.567 331.477 427.51 335.047 429.296 338.197C431.082 341.346 433.648 343.965 436.739 345.791L584.373 432.369C587.971 434.481 591.973 435.784 596.108 436.191C595.734 439.823 595.88 443.519 595.589 447.172C589.731 446.685 584.054 444.874 578.973 441.872L431.339 355.294C426.6 352.512 422.665 348.51 419.93 343.691C417.196 338.872 415.758 333.406 415.761 327.842V302.777C415.754 299.142 414.808 295.574 413.018 292.427C411.229 289.281 408.658 286.668 405.563 284.849L385.478 273.045C384.863 272.686 384.323 272.207 383.891 271.635C383.458 271.064 383.141 270.411 382.958 269.714C382.774 269.017 382.728 268.29 382.822 267.576C382.916 266.861 383.148 266.172 383.505 265.548Z" fill="white"/>
<path opacity="0.2" d="M306.644 305.222L314.422 309.711V294.089L306.644 289.6V305.222Z" fill="white"/>
<path opacity="0.4" d="M293.689 297.733L301.466 302.222V286.6L293.689 282.133V297.733Z" fill="white"/>
<path opacity="0.8" d="M280.733 290.267L288.511 294.756V279.133L280.733 274.644V290.267Z" fill="white"/>
<path d="M267.8 282.778L275.577 287.267V271.667L267.8 267.178V282.778Z" fill="white"/>
<path d="M254.844 275.311L262.622 279.8V264.178L254.844 259.689V275.311Z" fill="white"/>
<path d="M174.733 248.756C174.884 251.61 175.708 254.388 177.137 256.864C178.566 259.339 180.559 261.442 182.956 263C187.4 265.622 191.178 263.489 191.178 258.244C191.022 255.391 190.196 252.615 188.768 250.14C187.339 247.666 185.348 245.562 182.956 244C178.4 241.378 174.733 243.511 174.733 248.756Z" fill="white"/>
<path d="M158.814 246.273C162.024 244.419 162.025 238.411 158.815 232.852C155.606 227.293 150.402 224.289 147.192 226.142C143.982 227.996 143.982 234.004 147.191 239.563C150.401 245.122 155.605 248.126 158.814 246.273Z" fill="white"/>
<path d="M114.822 214.156C114.973 217.01 115.797 219.788 117.226 222.264C118.654 224.739 120.648 226.842 123.045 228.4C127.489 231.022 131.267 228.911 131.267 223.667C131.111 220.814 130.285 218.037 128.856 215.563C127.428 213.088 125.437 210.984 123.045 209.422C118.489 206.8 114.822 208.911 114.822 214.156Z" fill="white"/>
<path d="M178.889 242.956C178.463 243.976 178.251 245.072 178.267 246.178C178.422 249.034 179.249 251.812 180.682 254.288C182.115 256.763 184.112 258.865 186.511 260.422C187.717 261.187 189.13 261.56 190.556 261.489C189.333 264.244 186.4 264.978 182.956 263C180.559 261.442 178.566 259.339 177.137 256.864C175.708 254.388 174.884 251.61 174.733 248.756C174.733 245.222 176.422 243.156 178.889 242.956Z" fill="#A9EBFF"/>
<path d="M148.933 225.644C148.499 226.67 148.287 227.776 148.311 228.889C148.466 231.745 149.294 234.524 150.727 236.999C152.159 239.474 154.157 241.576 156.556 243.133C157.766 243.888 159.175 244.259 160.6 244.2C159.378 246.956 156.445 247.689 153 245.711C150.604 244.153 148.61 242.05 147.181 239.575C145.752 237.099 144.929 234.321 144.778 231.467C144.778 227.933 146.467 225.844 148.933 225.644Z" fill="#A9EBFF"/>
<path d="M118.978 208.356C118.528 209.355 118.293 210.438 118.289 211.533C118.445 214.386 119.271 217.163 120.699 219.637C122.128 222.112 124.119 224.216 126.511 225.778C127.727 226.535 129.147 226.9 130.578 226.822C129.356 229.578 126.4 230.333 122.978 228.333C120.582 226.775 118.588 224.672 117.159 222.197C115.73 219.721 114.906 216.943 114.756 214.089C114.822 210.622 116.511 208.556 118.978 208.356Z" fill="#A9EBFF"/>
<path d="M368.778 144.556L300.8 105.289L354.822 74.1111L422.822 113.356L368.778 144.556Z" fill="#053054"/>
<path d="M368.778 70.4667L300.8 31.2L354.822 0L422.822 39.2667L368.778 70.4667Z" fill="url(#paint11_linear_2_604)"/>
<path d="M422.822 81.3778V39.2667L368.778 70.4667V112.578L422.822 81.3778Z" fill="url(#paint12_linear_2_604)"/>
<path d="M300.8 31.2V73.3111L368.778 112.578V70.4667L300.8 31.2Z" fill="url(#paint13_linear_2_604)"/>
<path d="M342.6 21.3556L313.156 38.3556V47.4667L321.911 52.5111V43.4L351.333 26.4L342.6 21.3556Z" fill="white"/>
<path d="M361.311 32.1555L331.867 49.1333V58.2444L340.6 63.2889V54.1778L370.044 37.2L361.311 32.1555Z" fill="white"/>
<path d="M380.022 42.9556L350.578 59.9555V69.0667L359.333 74.1111V65L388.756 48L380.022 42.9556Z" fill="white"/>
<path d="M342.6 21.3556V25.0222L348.222 28.2L351.333 26.4L342.6 21.3556Z" fill="#A9EBFF"/>
<path d="M316.333 45.5778L313.156 47.4666L321.911 52.5111V48.7111L316.333 45.5778Z" fill="#A9EBFF"/>
<path d="M342.6 21.3556L313.156 38.3556V47.4667L316.333 45.5778V40.2L342.622 25.0222L342.6 21.3556Z" fill="url(#paint14_linear_2_604)"/>
<path d="M361.311 32.1555V35.8222L366.911 39L370.044 37.2L361.311 32.1555Z" fill="#A9EBFF"/>
<path d="M335.022 56.3778L331.867 58.2444L340.6 63.2889V59.5111L335.022 56.3778Z" fill="#A9EBFF"/>
<path d="M361.311 32.1555L331.867 49.1333V58.2444L335.022 56.3778V51L361.311 35.8222V32.1555Z" fill="url(#paint15_linear_2_604)"/>
<path d="M380.022 42.9556V46.6222L385.644 49.8L388.756 48L380.022 42.9556Z" fill="#A9EBFF"/>
<path d="M353.756 67.1778L350.578 69.0667L359.333 74.1111V70.3111L353.756 67.1778Z" fill="#A9EBFF"/>
<path d="M380.022 42.9556L350.578 59.9555V69.0667L353.756 67.1778V61.8L380.044 46.6222L380.022 42.9556Z" fill="url(#paint16_linear_2_604)"/>
<path d="M59.7323 417.955L189.01 388.176C190.03 387.949 191.087 387.942 192.11 388.154C193.133 388.366 194.099 388.793 194.945 389.407C195.791 390.021 196.497 390.807 197.017 391.714C197.537 392.621 197.858 393.628 197.96 394.669L204.963 465.871C205.087 467.105 204.899 468.35 204.416 469.492C203.932 470.634 203.17 471.636 202.198 472.405C201.226 473.175 200.077 473.687 198.855 473.895C197.633 474.103 196.379 474 195.208 473.596L59.1953 427.046C58.2181 426.712 57.3773 426.067 56.8016 425.209C56.226 424.351 55.9473 423.328 56.0082 422.296C56.0692 421.265 56.4664 420.281 57.139 419.497C57.8117 418.713 58.7226 418.172 59.7323 417.955Z" fill="url(#paint17_radial_2_604)"/>
<defs>
<radialGradient id="paint0_radial_2_604" cx="0" cy="0" r="1" gradientUnits="userSpaceOnUse" gradientTransform="translate(273.894 -15.503) scale(379.953 458)">
<stop stop-color="#366491"/>
<stop offset="1" stop-color="#113F6D"/>
</radialGradient>
<linearGradient id="paint1_linear_2_604" x1="81.8666" y1="46.6444" x2="265.378" y2="352.222" gradientUnits="userSpaceOnUse">
<stop stop-color="#113F6D"/>
<stop offset="1" stop-color="white"/>
</linearGradient>
<linearGradient id="paint2_linear_2_604" x1="227.289" y1="158.933" x2="19.7555" y2="-1.39996" gradientUnits="userSpaceOnUse">
<stop stop-color="#59BDEF"/>
<stop offset="1" stop-color="#7BDAFF"/>
</linearGradient>
<linearGradient id="paint3_linear_2_604" x1="228.111" y1="235.422" x2="344.244" y2="235.422" gradientUnits="userSpaceOnUse">
<stop stop-color="#2573BA"/>
<stop offset="1" stop-color="#0063AD"/>
</linearGradient>
<linearGradient id="paint4_linear_2_604" x1="81.9778" y1="226.756" x2="228.111" y2="226.756" gradientUnits="userSpaceOnUse">
<stop stop-color="#3A9BD5"/>
<stop offset="1" stop-color="#2573BA"/>
</linearGradient>
<linearGradient id="paint5_linear_2_604" x1="5338.14" y1="3965.69" x2="7140.61" y2="3965.69" gradientUnits="userSpaceOnUse">
<stop stop-color="#2573BA"/>
<stop offset="1" stop-color="#0063AD"/>
</linearGradient>
<linearGradient id="paint6_linear_2_604" x1="6524.82" y1="4572.94" x2="8328.55" y2="4572.94" gradientUnits="userSpaceOnUse">
<stop stop-color="#2573BA"/>
<stop offset="1" stop-color="#0063AD"/>
</linearGradient>
<linearGradient id="paint7_linear_2_604" x1="7708.99" y1="5182.29" x2="9511.45" y2="5182.29" gradientUnits="userSpaceOnUse">
<stop stop-color="#2573BA"/>
<stop offset="1" stop-color="#0063AD"/>
</linearGradient>
<linearGradient id="paint8_linear_2_604" x1="149360" y1="9269.69" x2="146040" y2="11513" gradientUnits="userSpaceOnUse">
<stop stop-color="#3A9BD5"/>
<stop offset="1" stop-color="#2573BA"/>
</linearGradient>
<linearGradient id="paint9_linear_2_604" x1="379.844" y1="219.111" x2="272.289" y2="265.333" gradientUnits="userSpaceOnUse">
<stop stop-color="#7BDAFF"/>
<stop offset="1" stop-color="#59BDEF"/>
</linearGradient>
<linearGradient id="paint10_linear_2_604" x1="146929" y1="9846.02" x2="143418" y2="10882.7" gradientUnits="userSpaceOnUse">
<stop stop-color="#2573BA"/>
<stop offset="1" stop-color="#0063AD"/>
</linearGradient>
<linearGradient id="paint11_linear_2_604" x1="24650.3" y1="1474.87" x2="21615" y2="-2586.32" gradientUnits="userSpaceOnUse">
<stop stop-color="#59BDEF"/>
<stop offset="1" stop-color="#7BDAFF"/>
</linearGradient>
<linearGradient id="paint12_linear_2_604" x1="11163.1" y1="2747.38" x2="12476.9" y2="2747.38" gradientUnits="userSpaceOnUse">
<stop stop-color="#2573BA"/>
<stop offset="1" stop-color="#0063AD"/>
</linearGradient>
<linearGradient id="paint13_linear_2_604" x1="11797.9" y1="2890" x2="13878" y2="2890" gradientUnits="userSpaceOnUse">
<stop stop-color="#3A9BD5"/>
<stop offset="1" stop-color="#2573BA"/>
</linearGradient>
<linearGradient id="paint14_linear_2_604" x1="5460.68" y1="498.144" x2="5851.41" y2="498.144" gradientUnits="userSpaceOnUse">
<stop stop-color="#2573BA"/>
<stop offset="1" stop-color="#0063AD"/>
</linearGradient>
<linearGradient id="paint15_linear_2_604" x1="5723.44" y1="635.331" x2="6113.58" y2="635.331" gradientUnits="userSpaceOnUse">
<stop stop-color="#2573BA"/>
<stop offset="1" stop-color="#0063AD"/>
</linearGradient>
<linearGradient id="paint16_linear_2_604" x1="5994.33" y1="773.544" x2="6385.05" y2="773.544" gradientUnits="userSpaceOnUse">
<stop stop-color="#2573BA"/>
<stop offset="1" stop-color="#0063AD"/>
</linearGradient>
<radialGradient id="paint17_radial_2_604" cx="0" cy="0" r="1" gradientUnits="userSpaceOnUse" gradientTransform="translate(188.182 346.574) scale(136.549 136.649)">
<stop stop-color="#FCB454"/>
<stop offset="1" stop-color="#FF962E"/>
</radialGradient>
</defs>
</svg>
