<svg width="113" height="27" viewBox="0 0 113 27" fill="none" xmlns="http://www.w3.org/2000/svg">
<path d="M32.1369 21C31.9869 21 31.852 20.9475 31.732 20.8425C31.627 20.7376 31.5745 20.6026 31.5745 20.4377V5.81687C31.5745 5.65192 31.627 5.51696 31.732 5.41199C31.852 5.30702 31.9869 5.25453 32.1369 5.25453H34.5662C34.8061 5.25453 34.9861 5.32201 35.106 5.45697C35.241 5.57694 35.3235 5.67441 35.3535 5.74939L39.3123 12.8573L43.2712 5.74939C43.3162 5.67441 43.3911 5.57694 43.4961 5.45697C43.6161 5.32201 43.8035 5.25453 44.0585 5.25453H46.4653C46.6302 5.25453 46.7652 5.30702 46.8701 5.41199C46.9901 5.51696 47.0501 5.65192 47.0501 5.81687V20.4377C47.0501 20.6026 46.9901 20.7376 46.8701 20.8425C46.7652 20.9475 46.6302 21 46.4653 21H43.7885C43.6236 21 43.4811 20.9475 43.3612 20.8425C43.2562 20.7376 43.2037 20.6026 43.2037 20.4377V12.0026L40.6619 16.7037C40.6019 16.8387 40.512 16.9587 40.392 17.0636C40.272 17.1686 40.1071 17.2211 39.8972 17.2211H38.7275C38.5175 17.2211 38.3526 17.1686 38.2326 17.0636C38.1127 16.9587 38.0152 16.8387 37.9402 16.7037L35.3984 12.0026V20.4377C35.3984 20.6026 35.346 20.7376 35.241 20.8425C35.136 20.9475 35.0011 21 34.8361 21H32.1369ZM54.2289 21.2249C53.3741 21.2249 52.6093 21.03 51.9345 20.6401C51.2747 20.2502 50.7574 19.6804 50.3825 18.9306C50.0076 18.1658 49.8201 17.2361 49.8201 16.1414V9.86571C49.8201 9.70075 49.8726 9.56579 49.9776 9.46082C50.0826 9.35585 50.2175 9.30337 50.3825 9.30337H53.1942C53.3591 9.30337 53.4941 9.35585 53.599 9.46082C53.704 9.56579 53.7565 9.70075 53.7565 9.86571V16.0064C53.7565 17.476 54.4163 18.2108 55.7359 18.2108C56.3508 18.2108 56.8381 18.0234 57.198 17.6485C57.5729 17.2586 57.7603 16.7112 57.7603 16.0064V9.86571C57.7603 9.70075 57.8128 9.56579 57.9178 9.46082C58.0228 9.35585 58.1577 9.30337 58.3227 9.30337H61.1344C61.2993 9.30337 61.4343 9.35585 61.5393 9.46082C61.6442 9.56579 61.6967 9.70075 61.6967 9.86571V20.4377C61.6967 20.6026 61.6442 20.7376 61.5393 20.8425C61.4343 20.9475 61.2993 21 61.1344 21H58.5251C58.3752 21 58.2402 20.9475 58.1202 20.8425C58.0153 20.7376 57.9628 20.6026 57.9628 20.4377V19.5829C57.5729 20.1228 57.063 20.5351 56.4332 20.8201C55.8184 21.09 55.0836 21.2249 54.2289 21.2249Z" fill="#1E293B"/>
<path d="M64.8599 15.8715C64.6949 15.8715 64.56 15.819 64.455 15.714C64.35 15.6091 64.2975 15.4741 64.2975 15.3091V13.1947C64.2975 13.0298 64.35 12.8948 64.455 12.7899C64.56 12.6849 64.6949 12.6324 64.8599 12.6324H71.9003C72.0653 12.6324 72.2003 12.6849 72.3052 12.7899C72.4102 12.8948 72.4627 13.0298 72.4627 13.1947V15.3091C72.4627 15.4741 72.4102 15.6091 72.3052 15.714C72.2003 15.819 72.0653 15.8715 71.9003 15.8715H64.8599ZM79.8757 21.2249C78.901 21.2249 78.0687 21.12 77.3789 20.91C76.7041 20.6851 76.1493 20.4152 75.7144 20.1003C75.2945 19.7853 74.9796 19.4629 74.7697 19.133C74.5597 18.7881 74.4473 18.4957 74.4323 18.2558C74.4173 18.0908 74.4698 17.9559 74.5897 17.8509C74.7097 17.7309 74.8371 17.671 74.9721 17.671H77.5364C77.5814 17.671 77.6188 17.6785 77.6488 17.6935C77.6788 17.7084 77.7238 17.7384 77.7838 17.7834C77.9787 17.8884 78.1737 18.0234 78.3686 18.1883C78.5636 18.3383 78.7885 18.4732 79.0434 18.5932C79.2984 18.7132 79.6058 18.7731 79.9657 18.7731C80.3855 18.7731 80.7379 18.6907 81.0229 18.5257C81.3078 18.3608 81.4502 18.1133 81.4502 17.7834C81.4502 17.5435 81.3828 17.3486 81.2478 17.1986C81.1128 17.0336 80.8354 16.8762 80.4155 16.7262C80.0107 16.5763 79.3958 16.4263 78.5711 16.2764C77.7913 16.0964 77.109 15.864 76.5242 15.5791C75.9393 15.2791 75.4895 14.8968 75.1745 14.4319C74.8596 13.952 74.7022 13.3747 74.7022 12.6999C74.7022 12.1001 74.8971 11.5227 75.287 10.9679C75.6769 10.413 76.2467 9.96318 76.9965 9.61828C77.7463 9.25838 78.6685 9.07843 79.7632 9.07843C80.633 9.07843 81.3828 9.1834 82.0126 9.39334C82.6574 9.58829 83.1972 9.84321 83.6321 10.1581C84.082 10.473 84.4194 10.7954 84.6443 11.1253C84.8693 11.4552 84.9892 11.7552 85.0042 12.0251C85.0192 12.175 84.9742 12.31 84.8693 12.43C84.7643 12.5349 84.6443 12.5874 84.5094 12.5874H82.17C82.1101 12.5874 82.0501 12.5799 81.9901 12.5649C81.9301 12.5349 81.8776 12.5049 81.8326 12.475C81.6527 12.385 81.4727 12.265 81.2928 12.1151C81.1128 11.9651 80.9029 11.8301 80.663 11.7102C80.423 11.5902 80.1231 11.5302 79.7632 11.5302C79.3583 11.5302 79.0434 11.6202 78.8185 11.8001C78.5936 11.9801 78.4811 12.2125 78.4811 12.4974C78.4811 12.6924 78.5411 12.8723 78.661 13.0373C78.796 13.2022 79.0584 13.3522 79.4483 13.4872C79.8532 13.6221 80.4755 13.7721 81.3153 13.937C82.35 14.102 83.1747 14.3719 83.7896 14.7468C84.4044 15.1067 84.8393 15.5341 85.0942 16.0289C85.3491 16.5088 85.4766 17.0186 85.4766 17.5585C85.4766 18.2783 85.2591 18.9156 84.8243 19.4704C84.4044 20.0253 83.7746 20.4602 82.9348 20.7751C82.0951 21.075 81.0753 21.2249 79.8757 21.2249ZM92.8935 21.2249C91.124 21.2249 89.7144 20.7451 88.6647 19.7853C87.615 18.8256 87.0676 17.401 87.0227 15.5116C87.0227 15.4066 87.0227 15.2716 87.0227 15.1067C87.0227 14.9417 87.0227 14.8143 87.0227 14.7243C87.0676 13.5396 87.3301 12.5274 87.8099 11.6877C88.3048 10.8329 88.9796 10.1881 89.8344 9.75324C90.7041 9.30337 91.7163 9.07843 92.871 9.07843C94.1906 9.07843 95.2778 9.34086 96.1325 9.86571C97.0023 10.3906 97.6546 11.1028 98.0895 12.0026C98.5243 12.9023 98.7418 13.9295 98.7418 15.0842V15.624C98.7418 15.789 98.6818 15.924 98.5618 16.0289C98.4569 16.1339 98.3294 16.1864 98.1794 16.1864H90.9815C90.9815 16.2014 90.9815 16.2239 90.9815 16.2539C90.9815 16.2839 90.9815 16.3138 90.9815 16.3438C90.9965 16.7787 91.0715 17.1761 91.2065 17.536C91.3414 17.8959 91.5514 18.1808 91.8363 18.3908C92.1212 18.6007 92.4661 18.7057 92.871 18.7057C93.1709 18.7057 93.4183 18.6607 93.6133 18.5707C93.8232 18.4657 93.9957 18.3533 94.1306 18.2333C94.2656 18.0983 94.3705 17.9859 94.4455 17.8959C94.5805 17.7459 94.6855 17.656 94.7604 17.626C94.8504 17.581 94.9854 17.5585 95.1653 17.5585H97.9545C98.1045 17.5585 98.2244 17.6035 98.3144 17.6935C98.4194 17.7684 98.4644 17.8809 98.4494 18.0309C98.4344 18.2858 98.3069 18.5932 98.067 18.9531C97.8271 19.313 97.4747 19.6729 97.0098 20.0328C96.5599 20.3777 95.9901 20.6626 95.3003 20.8875C94.6105 21.1125 93.8082 21.2249 92.8935 21.2249ZM90.9815 13.9595H94.7829V13.9145C94.7829 13.4347 94.7079 13.0148 94.558 12.6549C94.423 12.295 94.2056 12.0176 93.9057 11.8226C93.6208 11.6277 93.2759 11.5302 92.871 11.5302C92.4661 11.5302 92.1212 11.6277 91.8363 11.8226C91.5664 12.0176 91.3564 12.295 91.2065 12.6549C91.0565 13.0148 90.9815 13.4347 90.9815 13.9145V13.9595ZM101.413 21C101.248 21 101.113 20.9475 101.008 20.8425C100.903 20.7376 100.851 20.6026 100.851 20.4377V5.59194C100.851 5.42698 100.903 5.29202 101.008 5.18705C101.113 5.08208 101.248 5.0296 101.413 5.0296H104.022C104.172 5.0296 104.3 5.08208 104.405 5.18705C104.524 5.29202 104.584 5.42698 104.584 5.59194V13.1273L107.711 9.68576C107.801 9.58079 107.899 9.49081 108.003 9.41583C108.108 9.34086 108.258 9.30337 108.453 9.30337H111.467C111.602 9.30337 111.715 9.35585 111.805 9.46082C111.91 9.5508 111.962 9.66326 111.962 9.79823C111.962 9.85821 111.947 9.92569 111.917 10.0007C111.887 10.0756 111.842 10.1356 111.782 10.1806L107.734 14.5444L112.345 20.1452C112.465 20.2652 112.525 20.3852 112.525 20.5051C112.525 20.6401 112.472 20.7601 112.367 20.865C112.277 20.955 112.157 21 112.007 21H108.926C108.701 21 108.536 20.9625 108.431 20.8875C108.326 20.7976 108.228 20.7076 108.138 20.6176L104.584 16.3438V20.4377C104.584 20.6026 104.524 20.7376 104.405 20.8425C104.3 20.9475 104.172 21 104.022 21H101.413Z" fill="#F97316"/>
<rect width="26.4909" height="26.4909" fill="#F97316"/>
<g clip-path="url(#clip0_47_2)">
<path d="M17.6606 4.73005C15.8915 3.85234 13.8845 3.57514 11.9437 3.94045C10.003 4.30576 8.23414 5.29368 6.90524 6.75453C5.57634 8.21537 4.75979 10.0695 4.57929 12.0361C4.39879 14.0027 4.86417 15.9746 5.90494 17.6529C6.94571 19.3313 8.50515 20.6246 10.347 21.3371C12.1888 22.0496 14.2127 22.1424 16.112 21.6014C18.0113 21.0604 19.6826 19.9151 20.8725 18.339C22.0624 16.7629 22.7063 14.8419 22.7064 12.867" stroke="white" stroke-width="1.00918" stroke-linecap="round" stroke-linejoin="round"/>
<path d="M12.6146 12.867C12.6146 13.1346 12.7209 13.3913 12.9102 13.5806C13.0995 13.7698 13.3561 13.8761 13.6238 13.8761C13.8915 13.8761 14.1481 13.7698 14.3374 13.5806C14.5267 13.3913 14.633 13.1346 14.633 12.867C14.633 12.5993 14.5267 12.3426 14.3374 12.1534C14.1481 11.9641 13.8915 11.8578 13.6238 11.8578C13.3561 11.8578 13.0995 11.9641 12.9102 12.1534C12.7209 12.3426 12.6146 12.5993 12.6146 12.867Z" stroke="white" stroke-width="1.00918" stroke-linecap="round" stroke-linejoin="round"/>
<path d="M20.6881 4.7936C20.6881 5.06125 20.7944 5.31794 20.9837 5.50719C21.1729 5.69645 21.4296 5.80278 21.6973 5.80278C21.9649 5.80278 22.2216 5.69645 22.4109 5.50719C22.6001 5.31794 22.7065 5.06125 22.7065 4.7936C22.7065 4.52595 22.6001 4.26926 22.4109 4.08C22.2216 3.89075 21.9649 3.78442 21.6973 3.78442C21.4296 3.78442 21.1729 3.89075 20.9837 4.08C20.7944 4.26926 20.6881 4.52595 20.6881 4.7936Z" stroke="white" stroke-width="1.00918" stroke-linecap="round" stroke-linejoin="round"/>
<path d="M21.6973 4.79352L18.1652 14.8853L15.6422 16.9036" stroke="white" stroke-width="1.00918" stroke-linecap="round" stroke-linejoin="round"/>
</g>
<defs>
<clipPath id="clip0_47_2">
<rect width="24.2202" height="24.2202" fill="white" transform="translate(1.51379 0.756897)"/>
</clipPath>
</defs>
</svg>
